<mxfile host="app.diagrams.net" modified="2021-01-03T08:57:54.204Z" agent="5.0 (Windows NT 10.0; Win64; x64) AppleWebKit/537.36 (KHTML, like Gecko) Chrome/87.0.4280.88 Safari/537.36" etag="fl3li7S_dvGPhxs3z5YT" version="14.1.8" type="github">
  <diagram id="hjX_5U7KJX6G9EyLcVMR" name="Page-1">
    <mxGraphModel dx="782" dy="435" grid="1" gridSize="10" guides="1" tooltips="1" connect="1" arrows="1" fold="1" page="1" pageScale="1" pageWidth="827" pageHeight="1169" math="0" shadow="0">
      <root>
        <mxCell id="0" />
        <mxCell id="1" parent="0" />
        <mxCell id="jlFk0oNnWtsrBsCmDFI0-4" value="用户" style="html=1;" vertex="1" parent="1">
          <mxGeometry x="40" y="40" width="80" height="30" as="geometry" />
        </mxCell>
        <mxCell id="jlFk0oNnWtsrBsCmDFI0-5" value="" style="shape=umlLifeline;participant=umlActor;perimeter=lifelinePerimeter;whiteSpace=wrap;html=1;container=1;collapsible=0;recursiveResize=0;verticalAlign=top;spacingTop=36;outlineConnect=0;" vertex="1" parent="1">
          <mxGeometry x="70" width="20" height="780" as="geometry" />
        </mxCell>
        <mxCell id="jlFk0oNnWtsrBsCmDFI0-6" value="" style="html=1;points=[];perimeter=orthogonalPerimeter;" vertex="1" parent="jlFk0oNnWtsrBsCmDFI0-5">
          <mxGeometry x="5" y="100" width="10" height="400" as="geometry" />
        </mxCell>
        <mxCell id="jlFk0oNnWtsrBsCmDFI0-8" value="华为手机:手机" style="shape=umlLifeline;perimeter=lifelinePerimeter;whiteSpace=wrap;html=1;container=1;collapsible=0;recursiveResize=0;outlineConnect=0;size=30;" vertex="1" parent="1">
          <mxGeometry x="200" y="40" width="100" height="740" as="geometry" />
        </mxCell>
        <mxCell id="jlFk0oNnWtsrBsCmDFI0-10" value="" style="html=1;points=[];perimeter=orthogonalPerimeter;" vertex="1" parent="jlFk0oNnWtsrBsCmDFI0-8">
          <mxGeometry x="45" y="60" width="10" height="80" as="geometry" />
        </mxCell>
        <mxCell id="jlFk0oNnWtsrBsCmDFI0-11" value="1、输入手机密码" style="html=1;verticalAlign=bottom;startArrow=oval;endArrow=block;exitX=1.233;exitY=0.012;exitDx=0;exitDy=0;exitPerimeter=0;" edge="1" target="jlFk0oNnWtsrBsCmDFI0-10" parent="1" source="jlFk0oNnWtsrBsCmDFI0-6">
          <mxGeometry relative="1" as="geometry">
            <mxPoint x="190" y="100" as="sourcePoint" />
          </mxGeometry>
        </mxCell>
        <mxCell id="jlFk0oNnWtsrBsCmDFI0-14" value="2、打开手机" style="html=1;verticalAlign=bottom;endArrow=open;dashed=1;endSize=8;exitX=0;exitY=0.95;" edge="1" parent="1" target="jlFk0oNnWtsrBsCmDFI0-5">
          <mxGeometry relative="1" as="geometry">
            <mxPoint x="-10" y="250" as="targetPoint" />
            <mxPoint x="245" y="180" as="sourcePoint" />
          </mxGeometry>
        </mxCell>
        <mxCell id="jlFk0oNnWtsrBsCmDFI0-15" value="安卓微信：微信" style="shape=umlLifeline;perimeter=lifelinePerimeter;whiteSpace=wrap;html=1;container=1;collapsible=0;recursiveResize=0;outlineConnect=0;" vertex="1" parent="1">
          <mxGeometry x="380" y="40" width="100" height="740" as="geometry" />
        </mxCell>
        <mxCell id="jlFk0oNnWtsrBsCmDFI0-21" value="" style="html=1;points=[];perimeter=orthogonalPerimeter;" vertex="1" parent="jlFk0oNnWtsrBsCmDFI0-15">
          <mxGeometry x="45" y="200" width="10" height="40" as="geometry" />
        </mxCell>
        <mxCell id="jlFk0oNnWtsrBsCmDFI0-34" value="" style="html=1;points=[];perimeter=orthogonalPerimeter;" vertex="1" parent="jlFk0oNnWtsrBsCmDFI0-15">
          <mxGeometry x="45" y="280" width="10" height="360" as="geometry" />
        </mxCell>
        <mxCell id="jlFk0oNnWtsrBsCmDFI0-22" value="3、打开微信扫一扫" style="html=1;verticalAlign=bottom;endArrow=block;entryX=0;entryY=0;" edge="1" target="jlFk0oNnWtsrBsCmDFI0-21" parent="1" source="jlFk0oNnWtsrBsCmDFI0-6">
          <mxGeometry relative="1" as="geometry">
            <mxPoint x="90" y="240" as="sourcePoint" />
          </mxGeometry>
        </mxCell>
        <mxCell id="jlFk0oNnWtsrBsCmDFI0-23" value="4、返回微信扫一扫界面" style="html=1;verticalAlign=bottom;endArrow=open;dashed=1;endSize=8;exitX=0;exitY=0.95;entryX=1.1;entryY=0.45;entryDx=0;entryDy=0;entryPerimeter=0;" edge="1" source="jlFk0oNnWtsrBsCmDFI0-21" parent="1" target="jlFk0oNnWtsrBsCmDFI0-6">
          <mxGeometry relative="1" as="geometry">
            <mxPoint x="355" y="316" as="targetPoint" />
          </mxGeometry>
        </mxCell>
        <mxCell id="jlFk0oNnWtsrBsCmDFI0-24" value="：商家" style="shape=umlLifeline;perimeter=lifelinePerimeter;whiteSpace=wrap;html=1;container=1;collapsible=0;recursiveResize=0;outlineConnect=0;" vertex="1" parent="1">
          <mxGeometry x="590" y="31" width="100" height="749" as="geometry" />
        </mxCell>
        <mxCell id="jlFk0oNnWtsrBsCmDFI0-25" value="" style="html=1;points=[];perimeter=orthogonalPerimeter;" vertex="1" parent="jlFk0oNnWtsrBsCmDFI0-24">
          <mxGeometry x="45" y="270" width="10" height="60" as="geometry" />
        </mxCell>
        <mxCell id="jlFk0oNnWtsrBsCmDFI0-26" value="5.2 生成收款二维码" style="edgeStyle=orthogonalEdgeStyle;html=1;align=left;spacingLeft=2;endArrow=block;rounded=0;" edge="1" parent="jlFk0oNnWtsrBsCmDFI0-24" source="jlFk0oNnWtsrBsCmDFI0-25">
          <mxGeometry relative="1" as="geometry">
            <mxPoint x="50" y="260" as="sourcePoint" />
            <Array as="points">
              <mxPoint x="75" y="280" />
              <mxPoint x="75" y="310" />
            </Array>
            <mxPoint x="55" y="310" as="targetPoint" />
          </mxGeometry>
        </mxCell>
        <mxCell id="jlFk0oNnWtsrBsCmDFI0-47" value="" style="html=1;points=[];perimeter=orthogonalPerimeter;" vertex="1" parent="jlFk0oNnWtsrBsCmDFI0-24">
          <mxGeometry x="45" y="520" width="10" height="50" as="geometry" />
        </mxCell>
        <mxCell id="jlFk0oNnWtsrBsCmDFI0-31" value="5.1扫描商家二维码" style="html=1;verticalAlign=bottom;endArrow=block;entryX=-0.233;entryY=0.156;entryDx=0;entryDy=0;entryPerimeter=0;" edge="1" parent="1" source="jlFk0oNnWtsrBsCmDFI0-6" target="jlFk0oNnWtsrBsCmDFI0-25">
          <mxGeometry width="80" relative="1" as="geometry">
            <mxPoint x="340" y="340" as="sourcePoint" />
            <mxPoint x="420" y="340" as="targetPoint" />
          </mxGeometry>
        </mxCell>
        <mxCell id="jlFk0oNnWtsrBsCmDFI0-35" value="5.3 返回收款二维码" style="html=1;verticalAlign=bottom;endArrow=open;dashed=1;endSize=8;" edge="1" parent="1">
          <mxGeometry relative="1" as="geometry">
            <mxPoint x="640" y="370" as="sourcePoint" />
            <mxPoint x="440" y="370" as="targetPoint" />
          </mxGeometry>
        </mxCell>
        <mxCell id="jlFk0oNnWtsrBsCmDFI0-37" value="5.4 读取识别商家收款码" style="edgeStyle=orthogonalEdgeStyle;html=1;align=left;spacingLeft=2;endArrow=block;rounded=0;entryX=1;entryY=0;" edge="1" parent="1">
          <mxGeometry relative="1" as="geometry">
            <mxPoint x="435" y="410" as="sourcePoint" />
            <Array as="points">
              <mxPoint x="455" y="410" />
            </Array>
            <mxPoint x="435" y="430" as="targetPoint" />
          </mxGeometry>
        </mxCell>
        <mxCell id="jlFk0oNnWtsrBsCmDFI0-38" value="6 、提示输入微信支付密码" style="html=1;verticalAlign=bottom;endArrow=open;dashed=1;endSize=8;entryX=1.033;entryY=0.855;entryDx=0;entryDy=0;entryPerimeter=0;" edge="1" parent="1" target="jlFk0oNnWtsrBsCmDFI0-6">
          <mxGeometry relative="1" as="geometry">
            <mxPoint x="430" y="440" as="sourcePoint" />
            <mxPoint x="350" y="440" as="targetPoint" />
          </mxGeometry>
        </mxCell>
        <mxCell id="jlFk0oNnWtsrBsCmDFI0-40" value="7.1 输入微信支付密码" style="html=1;verticalAlign=bottom;endArrow=block;" edge="1" parent="1" target="jlFk0oNnWtsrBsCmDFI0-15">
          <mxGeometry width="80" relative="1" as="geometry">
            <mxPoint x="80" y="480" as="sourcePoint" />
            <mxPoint x="160" y="480" as="targetPoint" />
          </mxGeometry>
        </mxCell>
        <mxCell id="jlFk0oNnWtsrBsCmDFI0-43" value="微信验证用户输入密码正确" style="edgeStyle=orthogonalEdgeStyle;html=1;align=left;spacingLeft=2;endArrow=block;rounded=0;" edge="1" parent="1">
          <mxGeometry relative="1" as="geometry">
            <mxPoint x="440" y="500" as="sourcePoint" />
            <Array as="points">
              <mxPoint x="465" y="500" />
            </Array>
            <mxPoint x="440" y="520" as="targetPoint" />
          </mxGeometry>
        </mxCell>
        <mxCell id="jlFk0oNnWtsrBsCmDFI0-44" value="7.3 向商家汇款" style="html=1;verticalAlign=bottom;endArrow=block;" edge="1" parent="1" target="jlFk0oNnWtsrBsCmDFI0-24">
          <mxGeometry width="80" relative="1" as="geometry">
            <mxPoint x="440" y="550" as="sourcePoint" />
            <mxPoint x="520" y="550" as="targetPoint" />
          </mxGeometry>
        </mxCell>
        <mxCell id="jlFk0oNnWtsrBsCmDFI0-48" value="7.4 汇款成功" style="html=1;verticalAlign=bottom;endArrow=open;dashed=1;endSize=8;" edge="1" parent="1">
          <mxGeometry relative="1" as="geometry">
            <mxPoint x="640" y="600" as="sourcePoint" />
            <mxPoint x="440" y="600" as="targetPoint" />
          </mxGeometry>
        </mxCell>
        <mxCell id="jlFk0oNnWtsrBsCmDFI0-49" value="8 提示用户支付成功" style="html=1;verticalAlign=bottom;endArrow=open;dashed=1;endSize=8;" edge="1" parent="1" target="jlFk0oNnWtsrBsCmDFI0-5">
          <mxGeometry relative="1" as="geometry">
            <mxPoint x="430" y="680" as="sourcePoint" />
            <mxPoint x="350" y="680" as="targetPoint" />
          </mxGeometry>
        </mxCell>
      </root>
    </mxGraphModel>
  </diagram>
</mxfile>
